<svg width="23" height="24" viewBox="0 0 23 24" fill="none" xmlns="http://www.w3.org/2000/svg">
<path d="M8.15757 22.2011V18.6337C8.15757 17.7231 8.90119 16.9849 9.8185 16.9849H13.1717C13.6122 16.9849 14.0347 17.1586 14.3462 17.4678C14.6576 17.777 14.8326 18.1964 14.8326 18.6337V22.2011C14.8299 22.5797 14.9794 22.9437 15.2481 23.2124C15.5168 23.4811 15.8824 23.6322 16.2638 23.6322H18.5515C19.6199 23.6349 20.6455 23.2155 21.402 22.4664C22.1585 21.7174 22.5837 20.7003 22.5837 19.6396V9.47683C22.5837 8.62003 22.2011 7.80731 21.539 7.25761L13.7567 1.08734C12.4029 0.00548342 10.4633 0.0404139 9.14995 1.1703L1.54517 7.25761C0.851856 7.79111 0.43747 8.60624 0.416992 9.47683V19.6293C0.416992 21.84 2.22227 23.6322 4.44919 23.6322H6.68466C7.47676 23.6322 8.12049 22.9977 8.12623 22.2114L8.15757 22.2011Z"/>
</svg>
