<svg width="32" height="24" viewBox="0 0 32 24" fill="none" xmlns="http://www.w3.org/2000/svg">
<path d="M5.33301 20.0003C5.33301 18.5858 5.89491 17.2293 6.8951 16.2291C7.8953 15.2289 9.25185 14.667 10.6663 14.667H21.333C22.7475 14.667 24.104 15.2289 25.1042 16.2291C26.1044 17.2293 26.6663 18.5858 26.6663 20.0003C26.6663 20.7076 26.3854 21.3858 25.8853 21.8859C25.3852 22.386 24.7069 22.667 23.9997 22.667H7.99967C7.29243 22.667 6.61415 22.386 6.11406 21.8859C5.61396 21.3858 5.33301 20.7076 5.33301 20.0003Z"  stroke-width="2.66667" stroke-linejoin="round"/>
<path d="M16 9.3335C18.2091 9.3335 20 7.54264 20 5.3335C20 3.12436 18.2091 1.3335 16 1.3335C13.7909 1.3335 12 3.12436 12 5.3335C12 7.54264 13.7909 9.3335 16 9.3335Z" stroke-width="2.66667"/>
</svg>
